<svg height="974" width="720" xmlns="http://www.w3.org/2000/svg">
<rect height="974" fill="#555" width="720"></rect>
<text fill="#7f7" font-family="Courier New" font-size="12" xml:space="preserve">
<tspan x="10" y="26">2 megabytes installed</tspan>
<tspan x="10" y="42"></tspan>
<tspan x="10" y="58">node_modules</tspan>
<tspan x="10" y="74">└─┬ wifi-password@3.0.0 </tspan>
<tspan x="10" y="90">  ├─┬ execa@0.4.0 </tspan>
<tspan x="10" y="106">  │ ├─┬ cross-spawn-async@2.2.5 </tspan>
<tspan x="10" y="122">  │ │ ├─┬ lru-cache@4.0.2 </tspan>
<tspan x="10" y="138">  │ │ │ ├── pseudomap@1.0.2 </tspan>
<tspan x="10" y="154">  │ │ │ └── yallist@2.1.2 </tspan>
<tspan x="10" y="170">  │ │ └─┬ which@1.2.14 </tspan>
<tspan x="10" y="186">  │ │   └── isexe@2.0.0 </tspan>
<tspan x="10" y="202">  │ ├── is-stream@1.1.0 </tspan>
<tspan x="10" y="218">  │ ├── npm-run-path@1.0.0 </tspan>
<tspan x="10" y="234">  │ ├── object-assign@4.1.1 </tspan>
<tspan x="10" y="250">  │ ├── path-key@1.0.0 </tspan>
<tspan x="10" y="266">  │ └── strip-eof@1.0.0 </tspan>
<tspan x="10" y="282">  └─┬ wifi-name@2.0.1 </tspan>
<tspan x="10" y="298">    └─┬ meow@3.7.0 </tspan>
<tspan x="10" y="314">      ├─┬ camelcase-keys@2.1.0 </tspan>
<tspan x="10" y="330">      │ └── camelcase@2.1.1 </tspan>
<tspan x="10" y="346">      ├── decamelize@1.2.0 </tspan>
<tspan x="10" y="362">      ├─┬ loud-rejection@1.6.0 </tspan>
<tspan x="10" y="378">      │ ├─┬ currently-unhandled@0.4.1 </tspan>
<tspan x="10" y="394">      │ │ └── array-find-index@1.0.2 </tspan>
<tspan x="10" y="410">      │ └── signal-exit@3.0.2 </tspan>
<tspan x="10" y="426">      ├── map-obj@1.0.1 </tspan>
<tspan x="10" y="442">      ├── minimist@1.2.0 </tspan>
<tspan x="10" y="458">      ├─┬ normalize-package-data@2.3.8 </tspan>
<tspan x="10" y="474">      │ ├── hosted-git-info@2.4.2 </tspan>
<tspan x="10" y="490">      │ ├─┬ is-builtin-module@1.0.0 </tspan>
<tspan x="10" y="506">      │ │ └── builtin-modules@1.1.1 </tspan>
<tspan x="10" y="522">      │ ├── semver@5.3.0 </tspan>
<tspan x="10" y="538">      │ └─┬ validate-npm-package-license@3.0.1 </tspan>
<tspan x="10" y="554">      │   ├─┬ spdx-correct@1.0.2 </tspan>
<tspan x="10" y="570">      │   │ └── spdx-license-ids@1.2.2 </tspan>
<tspan x="10" y="586">      │   └── spdx-expression-parse@1.0.4 </tspan>
<tspan x="10" y="602">      ├─┬ read-pkg-up@1.0.1 </tspan>
<tspan x="10" y="618">      │ ├─┬ find-up@1.1.2 </tspan>
<tspan x="10" y="634">      │ │ ├── path-exists@2.1.0 </tspan>
<tspan x="10" y="650">      │ │ └─┬ pinkie-promise@2.0.1 </tspan>
<tspan x="10" y="666">      │ │   └── pinkie@2.0.4 </tspan>
<tspan x="10" y="682">      │ └─┬ read-pkg@1.1.0 </tspan>
<tspan x="10" y="698">      │   ├─┬ load-json-file@1.1.0 </tspan>
<tspan x="10" y="714">      │   │ ├── graceful-fs@4.1.11 </tspan>
<tspan x="10" y="730">      │   │ ├─┬ parse-json@2.2.0 </tspan>
<tspan x="10" y="746">      │   │ │ └─┬ error-ex@1.3.1 </tspan>
<tspan x="10" y="762">      │   │ │   └── is-arrayish@0.2.1 </tspan>
<tspan x="10" y="778">      │   │ ├── pify@2.3.0 </tspan>
<tspan x="10" y="794">      │   │ └─┬ strip-bom@2.0.0 </tspan>
<tspan x="10" y="810">      │   │   └── is-utf8@0.2.1 </tspan>
<tspan x="10" y="826">      │   └── path-type@1.1.0 </tspan>
<tspan x="10" y="842">      ├─┬ redent@1.0.0 </tspan>
<tspan x="10" y="858">      │ ├─┬ indent-string@2.1.0 </tspan>
<tspan x="10" y="874">      │ │ └─┬ repeating@2.0.1 </tspan>
<tspan x="10" y="890">      │ │   └─┬ is-finite@1.0.2 </tspan>
<tspan x="10" y="906">      │ │     └── number-is-nan@1.0.1 </tspan>
<tspan x="10" y="922">      │ └─┬ strip-indent@1.0.1 </tspan>
<tspan x="10" y="938">      │   └── get-stdin@4.0.1 </tspan>
<tspan x="10" y="954">      └── trim-newlines@1.0.0</tspan>
</text>
</svg>
